<?xml version="1.0" encoding="utf-8"?>
<!-- Generator: Adobe Illustrator 26.0.0, SVG Export Plug-In . SVG Version: 6.00 Build 0)  -->
<svg version="1.1" id="Camada_1" xmlns="http://www.w3.org/2000/svg" xmlns:xlink="http://www.w3.org/1999/xlink" x="0px" y="0px"
	 viewBox="0 0 3516.22 1033.53" style="enable-background:new 0 0 3516.22 1033.53;" xml:space="preserve">
<style type="text/css">
	.st0{fill:#F6F6F6;}
</style>
<g>
	<path class="st0" d="M467.49,597.28c6.68,14.82,13.09,30.01,19.23,45.55c6.14-15.91,12.64-31.36,19.5-46.37
		c6.86-15,13.9-29.55,21.13-43.65l202.62-399.17c3.61-6.87,7.31-12.2,11.11-15.99c3.79-3.79,8.03-6.6,12.73-8.41
		c4.69-1.81,10.02-2.72,15.98-2.72c5.96,0,12.91,0,20.86,0h59.05c44.58,0,80.72,36.14,80.72,80.72v627.38
		c0,44.58-36.14,80.72-80.72,80.72h0c-44.58,0-80.72-36.14-80.72-80.72V461.34c0-22.03,1.08-45.86,3.25-71.51L563.11,795.62
		c-6.5,12.64-15.26,22.21-26.28,28.71c-11.02,6.5-23.57,9.75-37.65,9.75h-24.92c-14.09,0-26.64-3.25-37.65-9.75
		c-11.02-6.5-19.78-16.07-26.28-28.71L200.12,389.29c1.44,12.65,2.52,25.19,3.25,37.65c0.72,12.46,1.08,23.93,1.08,34.4v373.28
		c0,44.58-36.14,80.72-80.72,80.72h0c-44.58,0-80.72-36.14-80.72-80.72V266.3c0-77.2,62.58-139.78,139.78-139.78h0
		c7.94,0,14.9,0,20.86,0c5.96,0,11.28,0.91,15.98,2.72c4.69,1.81,8.94,4.61,12.73,8.41s7.49,9.12,11.11,15.99l203.17,400.79
		C453.85,568.18,460.8,582.46,467.49,597.28z"/>
	<path class="st0" d="M1388.77,770.69c24.56,0,46.5-4.06,65.82-12.19c19.32-8.13,35.67-19.77,49.04-34.94
		c13.35-15.17,23.56-33.67,30.61-55.53c7.04-21.85,10.56-46.68,10.56-74.49V206.71c0-44.58,36.14-80.72,80.72-80.72h21.67
		c44.58,0,80.72,36.14,80.72,80.72v386.83c0,48.41-7.85,92.83-23.57,133.28c-15.71,40.46-38.2,75.31-67.45,104.56
		c-29.25,29.26-64.83,52.01-106.73,68.26c-41.9,16.25-89.03,24.38-141.4,24.38c-52.74,0-100.05-8.13-141.95-24.38
		c-41.9-16.25-77.47-39.01-106.73-68.26c-29.26-29.25-51.66-64.11-67.18-104.56c-15.53-40.45-23.3-84.87-23.3-133.28V206.71
		c0-44.58,36.14-80.72,80.72-80.72h21.67c44.58,0,80.72,36.14,80.72,80.72v386.29c0,27.82,3.52,52.65,10.57,74.49
		c7.04,21.86,17.24,40.46,30.61,55.8c13.35,15.36,29.7,27.09,49.03,35.21C1342.26,766.63,1364.21,770.69,1388.77,770.69z"/>
	<path class="st0" d="M1826.49,236.74c-21.26-53.03,17.8-110.76,74.93-110.76h28.04c15.89,0,28.89,3.61,39.01,10.84
		c10.11,7.23,17.34,16.8,21.67,28.72l152.78,422.58c6.86,18.42,13.81,38.47,20.86,60.14c7.04,21.67,13.63,44.42,19.78,68.26
		c0,0,0,0,0,0c5.05-23.84,10.92-46.59,17.61-68.26c6.68-21.67,13.27-41.72,19.78-60.14l151.7-422.58
		c3.61-10.11,10.65-19.23,21.13-27.36c10.47-8.13,23.29-12.19,38.46-12.19h29.12c57.13,0,96.19,57.73,74.93,110.76l-241.16,601.67
		c-18.63,46.48-63.66,76.94-113.73,76.94l0,0c-50.07,0-95.1-30.47-113.73-76.94L1826.49,236.74z"/>
	<path class="st0" d="M2765.42,915.35h-22.75c-44.58,0-80.72-36.14-80.72-80.72V206.71c0-44.58,36.14-80.72,80.72-80.72h22.75
		c44.58,0,80.72,36.14,80.72,80.72v627.92C2846.14,879.21,2810,915.35,2765.42,915.35z"/>
	<path class="st0" d="M3432.33,286.35c-5.42,8.67-11.11,15.17-17.07,19.5c-5.96,4.33-13.64,6.5-23.02,6.5
		c-8.31,0-17.25-2.61-26.82-7.86c-9.57-5.23-20.41-11.11-32.51-17.61c-12.11-6.5-25.92-12.37-41.45-17.61
		c-15.53-5.23-33.23-7.86-53.09-7.86c-34.32,0-59.87,7.31-76.66,21.94c-16.8,14.63-25.19,34.4-25.19,59.32
		c0,15.9,5.05,29.08,15.17,39.55c10.11,10.48,23.38,19.5,39.82,27.09c16.43,7.59,35.21,14.54,56.34,20.86
		c21.13,6.32,42.71,13.37,64.74,21.13c22.02,7.77,43.61,16.89,64.74,27.36c21.13,10.48,39.91,23.84,56.35,40.09
		c16.43,16.25,29.7,36.03,39.82,59.32c10.11,23.3,15.17,51.38,15.17,84.25c0,36.48-6.33,70.61-18.96,102.4
		c-12.65,31.79-30.97,59.51-54.99,83.16c-24.03,23.66-53.63,42.26-88.85,55.81c-35.21,13.54-75.22,20.32-120,20.32
		c-24.57,0-49.57-2.53-75.03-7.59c-25.46-5.05-50.12-12.19-73.95-21.4c-23.84-9.21-46.24-20.13-67.18-32.78
		c-20.95-12.64-39.19-26.72-54.72-42.26l54.18-85.6c3.97-6.5,9.57-11.73,16.8-15.71c7.22-3.97,14.98-5.96,23.3-5.96
		c10.83,0,21.76,3.44,32.77,10.29c11.01,6.87,23.48,14.45,37.38,22.76c13.9,8.31,29.88,15.9,47.95,22.76
		c18.06,6.86,39.36,10.29,63.93,10.29c33.23,0,59.05-7.32,77.47-21.94s27.63-37.83,27.63-69.62c0-18.42-5.06-33.41-15.17-44.97
		c-10.12-11.55-23.39-21.13-39.82-28.71c-16.44-7.59-35.13-14.27-56.07-20.05c-20.95-5.77-42.44-12.19-64.47-19.23
		c-22.04-7.04-43.53-15.71-64.47-26c-20.95-10.29-39.64-23.84-56.07-40.63c-16.44-16.8-29.71-37.74-39.82-62.85
		c-10.11-25.1-15.17-56.07-15.17-92.92c0-29.61,5.96-58.51,17.88-86.68c11.92-28.17,29.43-53.27,52.55-75.31
		c23.11-22.03,51.47-39.63,85.06-52.82c33.59-13.18,72.06-19.78,115.4-19.78c24.19,0,47.76,1.9,70.7,5.69
		c22.93,3.79,44.7,9.4,65.28,16.8c20.58,7.41,39.82,16.25,57.7,26.55c17.88,10.29,33.86,21.94,47.95,34.94L3432.33,286.35z"/>
</g>
</svg>
